<!-- <svg role="img" xmlns="http://www.w3.org/2000/svg" width="136px" height="136px" viewBox="0 0 24 24" aria-labelledby="tvIconTitle" stroke="#F5222D" stroke-width="2.6470588235294117" stroke-linecap="round" stroke-linejoin="round" fill="none" color="#F5222D"> <title id="tvIconTitle">TV</title> <polygon points="20 8 20 20 4 20 4 8"/> <polyline stroke-linejoin="round" points="8 4 12 7.917 16 4"/> </svg> -->
<!-- <svg role="img" viewBox="0 0 24 24" xmlns="http://www.w3.org/2000/svg"><title>The Movie Database</title><path d="M6.62 12a2.291 2.291 0 0 1 2.292-2.295h-.013A2.291 2.291 0 0 1 11.189 12a2.291 2.291 0 0 1-2.29 2.291h.013A2.291 2.291 0 0 1 6.62 12zm10.72-4.062h4.266a2.291 2.291 0 0 0 2.29-2.291 2.291 2.291 0 0 0-2.29-2.296H17.34a2.291 2.291 0 0 0-2.291 2.296 2.291 2.291 0 0 0 2.29 2.29zM2.688 20.645h8.285a2.291 2.291 0 0 0 2.291-2.292 2.291 2.291 0 0 0-2.29-2.295H2.687a2.291 2.291 0 0 0-2.291 2.295 2.291 2.291 0 0 0 2.29 2.292zm10.881-6.354h.81l1.894-4.586H15.19l-1.154 3.008h-.013l-1.135-3.008h-1.154zm4.208 0h1.011V9.705h-1.011zm2.878 0h3.235v-.93h-2.223v-.933h1.99v-.934h-1.99v-.855h2.107v-.934h-3.112zM1.31 7.941h1.01V4.247h1.31v-.895H0v.895h1.31zm3.747 0h1.011V5.959h1.958v1.984h1.011v-4.59h-1.01v1.711H6.061V3.351H5.057zm5.348 0h3.242v-.933H11.41v-.934h1.99v-.933h-1.99v-.856h2.107v-.934h-3.112zM.162 14.296h1.005v-3.52h.013l1.167 3.52h.765l1.206-3.52h.013v3.52h1.011v-4.59H3.82L2.755 12.7h-.013L1.686 9.705H.156zm14.534 6.353h1.641a3.188 3.188 0 0 0 .98-.149 2.531 2.531 0 0 0 .824-.437 2.123 2.123 0 0 0 .567-.713 2.193 2.193 0 0 0 .223-.983 2.399 2.399 0 0 0-.218-1.07 1.958 1.958 0 0 0-.586-.716 2.405 2.405 0 0 0-.873-.392 4.349 4.349 0 0 0-1.046-.13h-1.519zm1.013-3.656h.596a2.26 2.26 0 0 1 .606.08 1.514 1.514 0 0 1 .503.244 1.167 1.167 0 0 1 .34.412 1.28 1.28 0 0 1 .13.587 1.546 1.546 0 0 1-.13.658 1.127 1.127 0 0 1-.347.433 1.41 1.41 0 0 1-.518.238 2.797 2.797 0 0 1-.649.07h-.538zm4.686 3.656h1.88a2.997 2.997 0 0 0 .613-.064 1.735 1.735 0 0 0 .554-.214 1.221 1.221 0 0 0 .402-.39 1.105 1.105 0 0 0 .155-.606 1.188 1.188 0 0 0-.071-.415 1.01 1.01 0 0 0-.204-.34 1.087 1.087 0 0 0-.317-.24 1.297 1.297 0 0 0-.413-.13v-.012a1.203 1.203 0 0 0 .575-.366.962.962 0 0 0 .216-.648 1.081 1.081 0 0 0-.149-.603 1.022 1.022 0 0 0-.389-.354 1.673 1.673 0 0 0-.54-.169 4.463 4.463 0 0 0-.6-.041h-1.712zm1.011-3.734h.687a1.4 1.4 0 0 1 .24.022.748.748 0 0 1 .22.075.432.432 0 0 1 .16.147.418.418 0 0 1 .061.236.47.47 0 0 1-.055.233.433.433 0 0 1-.146.156.62.62 0 0 1-.204.084 1.058 1.058 0 0 1-.23.026h-.745zm0 1.835h.765a1.96 1.96 0 0 1 .266.02 1.015 1.015 0 0 1 .26.07.519.519 0 0 1 .204.152.406.406 0 0 1 .08.26.481.481 0 0 1-.06.253.519.519 0 0 1-.16.168.62.62 0 0 1-.217.09 1.155 1.155 0 0 1-.237.027H21.4z"/></svg> -->
<!-- <svg role="img" viewBox="0 0 24 24" xmlns="http://www.w3.org/2000/svg"><title>Nike</title><path d="M24 7.8L6.442 15.276c-1.456.616-2.679.925-3.668.925-1.12 0-1.933-.392-2.437-1.177-.317-.504-.41-1.143-.28-1.918.13-.775.476-1.6 1.036-2.478.467-.71 1.232-1.643 2.297-2.8a6.122 6.122 0 00-.784 1.848c-.28 1.195-.028 2.072.756 2.632.373.261.886.392 1.54.392.522 0 1.11-.084 1.764-.252L24 7.8z"/></svg> -->
<svg t="1681731986631" class="icon" viewBox="0 0 1024 1024" version="1.1" xmlns="http://www.w3.org/2000/svg" p-id="9502" width="200" height="200"><path d="M0 512C0 229.68 229.68 0 512 0s512 229.68 512 512-229.68 512-512 512S0 794.32 0 512z m368-88c0-74.992-61.008-136-136-136C157.008 288 96 349.008 96 424c0 74.992 61.008 136 136 136 74.992 0 136-61.008 136-136z m-41.2 0c0 52.416-42.528 95.04-94.8 95.04-4.24 0-8.416-0.288-12.512-0.832a285.808 285.808 0 0 1 55.2-179.04 95.152 95.152 0 0 1 52.112 84.832zM520 368c74.992 0 136-61.008 136-136C656 157.008 594.992 96 520 96 445.008 96 384 157.008 384 232c0 74.992 61.008 136 136 136z m0-40.96c-52.272 0-94.8-42.624-94.8-95.04 0-0.736 0.048-1.456 0.064-2.192a284.784 284.784 0 0 1 94.736-16.16c33.184 0 65.072 5.712 94.736 16.16 0.016 0.72 0.064 1.44 0.064 2.192 0 52.416-42.528 95.04-94.8 95.04zM640 424c0 74.992 61.008 136 136 136 74.992 0 136-61.008 136-136 0-74.992-61.008-136-136-136-74.992 0-136 61.008-136 136z m94.816-85.6c48.944 42.608 66.496 110.368 55.952 170.144-0.544 3.024-0.08 6.272-0.176 9.376-4.768 0.736-9.632 1.12-14.592 1.12-52.272 0-94.8-42.624-94.8-95.04a95.2 95.2 0 0 1 53.616-85.6zM679.152 608a135.232 135.232 0 0 0-69.392 19.2 134.08 134.08 0 0 0-61.76 83.504 135.44 135.44 0 0 0 15.6 102.912A137.568 137.568 0 0 0 680.864 880a135.2 135.2 0 0 0 69.376-19.2 134.064 134.064 0 0 0 61.76-83.504 135.456 135.456 0 0 0-15.6-102.912A137.552 137.552 0 0 0 679.152 608z m-91.216 112.512a93.344 93.344 0 0 1 42.976-58.144 94 94 0 0 1 48.24-13.36c28.432 0 55.44 12.976 73.456 34.56a287.152 287.152 0 0 1-153.424 109.456l-0.32-0.496a94.768 94.768 0 0 1-10.928-72.016z m-127.472-46.144A137.648 137.648 0 0 0 343.152 608a135.392 135.392 0 0 0-69.44 19.2c-64.208 38.384-84.928 122.016-46.176 186.416A137.664 137.664 0 0 0 344.864 880a135.36 135.36 0 0 0 69.424-19.2c64.224-38.384 84.928-122.016 46.176-186.432z m-165.6-12a94.128 94.128 0 0 1 48.288-13.36 96.272 96.272 0 0 1 82.032 46.464 95.12 95.12 0 0 1-1.504 100.704 287.888 287.888 0 0 1-149.584-116.928c5.952-6.448 12.88-12.16 20.784-16.88zM432 520c0 39.696 32.304 72 72 72s72-32.304 72-72-32.304-72-72-72a72.08 72.08 0 0 0-72 72z m462.016 392.08c35.04 0 51.76-0.08 81.984-0.08 30.224 0 48 18.128 48 48s-17.44 48-48 48H751.328c54.224-20.64 101.776-52.592 142.688-95.92z" fill="#d81e06" p-id="9503"></path></svg>